<svg width="48" height="48" viewBox="0 0 46 44" version="1.1" xmlns="http://www.w3.org/2000/svg" xmlns:xlink="http://www.w3.org/1999/xlink">
    <g stroke="none" stroke-width="1" fill="none" fill-rule="evenodd">
        <g class="svg__stroke svg__color" transform="translate(-1096.000000, -647.000000)" stroke="currentColor" stroke-width="1">
            <g transform="translate(935.000000, 602.000000)">
                <g transform="translate(162.000000, 46.000000)">
                    <path d="M26,42 L26,34 C26,31.8 24.2,30 22,30 C19.8,30 18,31.8 18,34 L18,42" stroke-linecap="square"></path>
                    <path d="M0,28 L0,22" stroke-linecap="square"></path>
                    <path d="M44,28 L44,22" stroke-linecap="square"></path>
                    <polyline points="8.8 28 0 28 0 42 6 42"></polyline>
                    <polyline points="35.2 28 44 28 44 42 38 42"></polyline>
                    <polygon stroke-linecap="square" points="32 12 12 12 6 42 38 42"></polygon>
                    <polyline stroke-linecap="square" points="38 0 38 12 6 12 6 0"></polyline>
                    <path d="M14,0 L14,4" stroke-linecap="square"></path>
                    <path d="M22,4 L22,0" stroke-linecap="square"></path>
                    <path d="M30,0 L30,4" stroke-linecap="square"></path>
                    <path d="M6,4 L38,4" stroke-linecap="square"></path>
                </g>
            </g>
        </g>
    </g>
</svg>
