<svg width="48" height="48" viewBox="0 0 46 38" version="1.1" xmlns="http://www.w3.org/2000/svg" xmlns:xlink="http://www.w3.org/1999/xlink">
    <g stroke="none" stroke-width="1" fill="none" fill-rule="evenodd">
        <g class="svg__stroke svg__color" transform="translate(1.000000, 1.000000)" stroke="currentColor" stroke-width="1">
            <g>
                <path d="M0,30 L44,30"></path>
                <polyline points="22 8 10.0001907 18 0 8"></polyline>
                <polyline points="44 8 33.9998093 18 22 8"></polyline>
                <polyline stroke-linecap="square" points="0 8 0 36 44 36 44 8"></polyline>
                <circle stroke-linecap="square" cx="22" cy="4" r="4"></circle>
                <path d="M0,0 L0,8 C2.2091675,8 4,6.2091064 4,4 C4,1.7908325 2.2091675,0 0,0 Z" stroke-linecap="square"></path>
                <path d="M44,0 L44,8 C41.7908325,8 40,6.2091064 40,4 C40,1.7908325 41.7908325,0 44,0 Z" stroke-linecap="square"></path>
            </g>
        </g>
    </g>
</svg>