<svg width="48" height="48" xmlns="http://www.w3.org/2000/svg" viewBox="0 0 48.77 49.7">
   <path class="svg__stroke svg__color" fill="none" stroke="currentColor" stroke-width="1" stroke-miterlimit="10" d="M554.53,503.52a7.84,7.84,0,0,1,4.06-6.19c3.45-1.95,5.78.34,9.72-1.59,3.35-1.64,4.31-4.58,5-4.24.91.46-.89,6.23-3.53,11.31-2.81,5.41-4.36,8.38-7.25,8.66C558.85,511.82,554.37,507.79,554.53,503.52Z" transform="translate(-525.73 -490.47)"/>
   <path class="svg__stroke svg__color" fill="none" stroke="currentColor" stroke-width="1" stroke-miterlimit="10" d="M542.16,517.24l-13.58,13.59a4.25,4.25,0,0,0,6,6l13.58-13.59" transform="translate(-525.73 -490.47)"/>
   <path class="svg__stroke svg__color" fill="none" stroke="currentColor" stroke-width="1" stroke-miterlimit="10" d="M550.61,508.79h0a4.25,4.25,0,1,1,6,6h0" transform="translate(-525.73 -490.47)"/>
   <path class="svg__stroke svg__color" fill="none" stroke="currentColor" stroke-width="1" stroke-miterlimit="10" d="M547.48,495.57h11.21a.37.37,0,0,1,.37.37v43.5a4.42,4.42,0,0,1-4.42,4.42h-3.1a4.42,4.42,0,0,1-4.42-4.42v-43.5a.37.37,0,0,1,.37-.37Z" transform="translate(-731.23 52.84) rotate(-45)"/>
   <path class="svg__stroke svg__color" fill="none" stroke="currentColor" stroke-width="1" stroke-miterlimit="10" d="M531.66,506.56l-4.32-12.4,12.59,4.13a.22.22,0,0,1,0,.38L532,506.6A.22.22,0,0,1,531.66,506.56Z" transform="translate(-525.73 -490.47)"/>
   <line class="svg__stroke svg__color" fill="none" stroke="currentColor" stroke-width="1" stroke-miterlimit="10" x1="3.07" y1="7.88" x2="5.86" y2="5.09"/>
   <line class="svg__stroke svg__color" fill="none" stroke="currentColor" stroke-width="1" stroke-miterlimit="10" x1="44.42" y1="46.31" x2="10.28" y2="12.17"/>
</svg>
