<svg width="48" height="48" xmlns="http://www.w3.org/2000/svg" viewBox="0 0 68 57.75">
   <rect class="svg__stroke svg__color" fill="none" stroke="currentColor" stroke-width="1" stroke-miterlimit="10" x="1.5" y="1.5" width="65" height="44.17"/>
   <polygon class="svg__stroke svg__color" fill="none" stroke="currentColor" stroke-width="1" stroke-miterlimit="10" points="44.83 56.25 23 56.25 25.61 45.67 42.22 45.67 44.83 56.25"/>
   <line class="svg__stroke svg__color" fill="none" stroke="currentColor" stroke-width="1" stroke-miterlimit="10" x1="17.79" y1="56.25" x2="50.04" y2="56.25"/>
   <polyline class="svg__stroke svg__color" fill="none" stroke="currentColor" stroke-width="1" stroke-miterlimit="10" points="13.21 32.57 19.54 26.24 25.79 32.49"/>
   <polyline class="svg__stroke svg__color" fill="none" stroke="currentColor" stroke-width="1" stroke-miterlimit="10" points="25.79 26.58 32 20.37 44.04 32.41"/>
   <path class="svg__stroke svg__color" fill="none" stroke="currentColor" stroke-width="1" stroke-miterlimit="10" d="M913.52,500.78a3.94,3.94,0,1,1-3.94-3.95A3.94,3.94,0,0,1,913.52,500.78Z" transform="translate(-892.58 -486.45)"/>
   <line class="svg__stroke svg__color" fill="none" stroke="currentColor" stroke-width="1" stroke-miterlimit="10" x1="55.05" y1="9.15" x2="61.92" y2="9.15"/>
   <line class="svg__stroke svg__color" fill="none" stroke="currentColor" stroke-width="1" stroke-miterlimit="10" x1="55.05" y1="13.73" x2="61.92" y2="13.73"/>
   <line class="svg__stroke svg__color" fill="none" stroke="currentColor" stroke-width="1" stroke-miterlimit="10" x1="55.05" y1="18.31" x2="61.92" y2="18.31"/>
   <line class="svg__stroke svg__color" fill="none" stroke="currentColor" stroke-width="1" stroke-miterlimit="10" x1="55.05" y1="22.9" x2="61.92" y2="22.9"/>
   <line class="svg__stroke svg__color" fill="none" stroke="currentColor" stroke-width="1" stroke-miterlimit="10" x1="55.05" y1="27.48" x2="61.92" y2="27.48"/>
   <line class="svg__stroke svg__color" fill="none" stroke="currentColor" stroke-width="1" stroke-miterlimit="10" x1="55.05" y1="32.06" x2="61.92" y2="32.06"/>
   <line class="svg__stroke svg__color" fill="none" stroke="currentColor" stroke-width="1" stroke-miterlimit="10" x1="55.05" y1="36.65" x2="61.92" y2="36.65"/>
</svg>
