<svg width="48" height="48" xmlns="http://www.w3.org/2000/svg" viewBox="0 0 64.84 62.97">
   <circle class="svg__stroke svg__color" fill="none" stroke="currentColor" stroke-width="1" stroke-miterlimit="10" cx="790.11" cy="256.96" r="9.87" transform="translate(-329.96 783.96) rotate(-82.97)"/>
   <path class="svg__stroke svg__color" fill="none" stroke="currentColor" stroke-width="1" stroke-miterlimit="10" d="M810.94,287.66a20.84,20.84,0,0,0-41.67,0Z" transform="translate(-768.27 -225.69)"/>
   <path class="svg__stroke svg__color" fill="none" stroke="currentColor" stroke-width="1" stroke-miterlimit="10" d="M816.84,255.07v-1.35a10.3,10.3,0,0,1,2.66-6.85,7,7,0,1,0-12.15-4.6,6.91,6.91,0,0,0,1.65,4.49,10.77,10.77,0,0,1,2.76,7v1.35Z" transform="translate(-768.27 -225.69)"/>
   <line class="svg__stroke svg__color" fill="none" stroke="currentColor" stroke-width="1" stroke-miterlimit="10" x1="46.03" y1="4.18" x2="46.03"/>
   <line class="svg__stroke svg__color" fill="none" stroke="currentColor" stroke-width="1" stroke-miterlimit="10" x1="35.68" y1="8.47" x2="32.72" y2="5.51"/>
   <line class="svg__stroke svg__color" fill="none" stroke="currentColor" stroke-width="1" stroke-miterlimit="10" x1="64.84" y1="18.81" x2="60.66" y2="18.81"/>
   <line class="svg__stroke svg__color" fill="none" stroke="currentColor" stroke-width="1" stroke-miterlimit="10" x1="59.33" y1="5.51" x2="56.37" y2="8.47"/>
</svg>
