<svg width="48" height="48" xmlns="http://www.w3.org/2000/svg" viewBox="0 0 33.15 47">
    <g>
        <g>
            <path class="svg__stroke svg__color" stroke="currentColor" stroke-linecap="round" stroke-linejoin="round" stroke-width="1" fill="none" d="M20.7,30.39C21.57,31.63,21,38,16.76,38H16.4c-4.21,0-4.8-6.37-3.94-7.61"/>
            <path class="svg__stroke svg__color" stroke="currentColor" stroke-linecap="round" stroke-linejoin="round" stroke-width="1" fill="none" d="M20.7,30.39C21.57,31.63,21,38,16.76,38H16.4c-4.21,0-4.8-6.37-3.94-7.61"/>
            <path class="svg__stroke svg__color" stroke="currentColor" stroke-linecap="round" stroke-linejoin="round" stroke-width="1" fill="none" d="M9.56,31.13c-2.43,5.42,1.49,9.54,3.61,9.54,1.69,0,3-1.68,3.41-2.37C17,39,18.31,40.67,20,40.67c2.13,0,6.05-4.12,3.61-9.54"/>
            <line class="svg__stroke svg__color" stroke="currentColor" stroke-linecap="round" stroke-linejoin="round" stroke-width="1" fill="none" x1="16.58" y1="38.31" x2="16.58" y2="46.5"/>
            <line class="svg__stroke svg__color" stroke="currentColor" stroke-linecap="round" stroke-linejoin="round" stroke-width="1" fill="none" x1="14.97" y1="43.65" x2="13.15" y2="43.65"/>
            <line class="svg__stroke svg__color" stroke="currentColor" stroke-linecap="round" stroke-linejoin="round" stroke-width="1" fill="none" x1="14.97" y1="46.5" x2="13.15" y2="46.5"/>
            <path class="svg__stroke svg__color" stroke="currentColor" stroke-linecap="round" stroke-linejoin="round" stroke-width="1" fill="none" d="M24.9,19.53h0"/>
            <path class="svg__stroke svg__color" stroke="currentColor" stroke-linecap="round" stroke-linejoin="round" stroke-width="1" fill="none" d="M8.27,19.53h0"/>
            <path class="svg__stroke svg__color" stroke="currentColor" stroke-linecap="round" stroke-linejoin="round" stroke-width="1" fill="none" d="M24.63,23.22A11.18,11.18,0,0,1,21,29.58a7.13,7.13,0,0,1-1,.72,6.4,6.4,0,0,1-6.86,0,7.75,7.75,0,0,1-1-.72,11.18,11.18,0,0,1-3.61-6.36"/>
            <path class="svg__stroke svg__color" stroke="currentColor" stroke-linecap="round" stroke-linejoin="round" stroke-width="1" fill="none" d="M8.06,10.41l-2.63-6S9.22.55,16.57.5,27.71,4.42,27.71,4.42l-2.6,5.93"/>
            <path class="svg__stroke svg__color" stroke="currentColor" stroke-linecap="round" stroke-linejoin="round" stroke-width="1" fill="none" d="M24.43,19.51a.24.24,0,0,1,.12,0,.86.86,0,0,1,.28,0h.07a1.86,1.86,0,0,1-.27,3.69"/>
            <path class="svg__stroke svg__color" stroke="currentColor" stroke-linecap="round" stroke-linejoin="round" stroke-width="1" fill="none" d="M8.73,19.51a.2.2,0,0,0-.11,0,.93.93,0,0,0-.29,0H8.27a1.86,1.86,0,0,0,.26,3.69"/>
            <path class="svg__stroke svg__color" stroke="currentColor" stroke-linecap="round" stroke-linejoin="round" stroke-width="1" fill="none" d="M32.57,46.38s1.81-13.65-11.87-16L20,30.3"/>
            <path class="svg__stroke svg__color" stroke="currentColor" stroke-linecap="round" stroke-linejoin="round" stroke-width="1" fill="none" d="M13.13,30.3l-.68.1C-1.24,32.73.58,46.38.58,46.38"/>
            <path class="svg__stroke svg__color" stroke="currentColor" stroke-linecap="round" stroke-linejoin="round" stroke-width="1" fill="none" d="M14.1,26.31a3.38,3.38,0,0,0,4.78.2l.19-.2"/>
            <path class="svg__stroke svg__color" stroke="currentColor" stroke-linecap="round" stroke-linejoin="round" stroke-width="1" fill="none" d="M24.43,19.51c0-3.5-5.53-6.25-5.53-6.25s-.83-4.53,1.42-4.84"/>
            <path class="svg__stroke svg__color" stroke="currentColor" stroke-linecap="round" stroke-linejoin="round" stroke-width="1" fill="none" d="M25,31.7c3,1.92,4.76.73,6.16-1.3-4.25-.68-5-2.95-3.56-6.37,4.1-13.37-6.47-16.21-7.3-15.61"/>
            <path class="svg__stroke svg__color" stroke="currentColor" stroke-linecap="round" stroke-linejoin="round" stroke-width="1" fill="none" d="M8.15,31.7c-3,1.92-4.76.73-6.16-1.3,4.24-.68,5-2.95,3.56-6.37C1.45,10.66,13.75,4.25,20,8.5"/>
            <path class="svg__stroke svg__color" stroke="currentColor" stroke-linecap="round" stroke-linejoin="round" stroke-width="1" fill="none" d="M8.73,19.51C11,16,15,17.53,18.9,13.26"/>
            <line class="svg__stroke svg__color" stroke="currentColor" stroke-linecap="round" stroke-linejoin="round" stroke-width="1" fill="none" x1="16.58" y1="2.27" x2="16.58" y2="5.51"/>
            <line class="svg__stroke svg__color" stroke="currentColor" stroke-linecap="round" stroke-linejoin="round" stroke-width="1" fill="none" x1="14.96" y1="3.89" x2="18.2" y2="3.89"/>
            <path class="svg__stroke svg__color" stroke="currentColor" stroke-linecap="round" stroke-linejoin="round" stroke-width="1" fill="none" d="M20.63,20.7a.64.64,0,0,0-.64-.64.64.64,0,0,0-.64.64.64.64,0,1,0,1.28,0Z"/>
            <path class="svg__stroke svg__color" stroke="currentColor" stroke-linecap="round" stroke-linejoin="round" stroke-width="1" fill="none" d="M12.53,20.7a.64.64,0,0,1,1.28,0,.64.64,0,0,1-.64.64h0A.64.64,0,0,1,12.53,20.7Z"/>
            <line class="svg__stroke svg__color" stroke="currentColor" stroke-linecap="round" stroke-linejoin="round" stroke-width="1" fill="none" x1="20.63" y1="20.71" x2="21.38" y2="20.32"/>
            <line class="svg__stroke svg__color" stroke="currentColor" stroke-linecap="round" stroke-linejoin="round" stroke-width="1" fill="none" x1="12.54" y1="20.71" x2="11.78" y2="20.32"/>
        </g>
    </g>
</svg>
