<svg width="48" height="48" xmlns="http://www.w3.org/2000/svg" viewBox="0 0 47 46.61">
    <g>
        <g>
            <path class="svg__stroke svg__color" stroke="currentColor" stroke-linecap="round" stroke-linejoin="round" stroke-width="1" fill="none" d="M13.62,20.09c2.94,3.24-2.34,14.44,1.06,14.44,4.47,0,6.08-12.93,5-19.16-.3-1.8,2.44-5.44,2.44-8.39S20.85.5,17.68.5s-3.63,2.74-6.35,2.74S8.16.5,5,.5.5,4,.5,7,3.25,13.58,3,15.37C1.9,21.6,3.51,34.53,8,34.53c3.52,0-2.23-12,1.38-14.75h0"></path>
            <path class="svg__stroke svg__color" stroke="currentColor" stroke-linecap="round" stroke-linejoin="round" stroke-width="1" fill="none" d="M11.73,12.25a3.72,3.72,0,0,0,2.48-1.09"></path>
            <path class="svg__stroke svg__color" stroke="currentColor" stroke-linecap="round" stroke-linejoin="round" stroke-width="1" fill="none" d="M9.25,11.16a3.72,3.72,0,0,0,2.48,1.09"></path>
            <path class="svg__stroke svg__color" stroke="currentColor" stroke-linecap="round" stroke-linejoin="round" stroke-width="1" fill="none" d="M16.56,8.59A.62.62,0,0,0,15.94,8c-.35,0-.83.28-.83.62s.49.63.83.63a.63.63,0,0,0,.62-.63Z"></path>
            <path class="svg__stroke svg__color" stroke="currentColor" stroke-linecap="round" stroke-linejoin="round" stroke-width="1" fill="none" d="M6.41,8.73A.63.63,0,0,1,7,8.1H7c.34,0,.82.28.82.63s-.48.61-.82.61A.62.62,0,0,1,6.41,8.73Z"></path>
            <path class="svg__stroke svg__color" stroke="currentColor" stroke-linecap="round" stroke-linejoin="round" stroke-width="1" fill="none" d="M11.2,17.36a1.41,1.41,0,1,1-1.41,1.41,1.41,1.41,0,0,1,1.41-1.41Z"></path>
            <path class="svg__stroke svg__color" stroke="currentColor" stroke-linecap="round" stroke-linejoin="round" stroke-width="1" fill="none" d="M12.46,19.49l3.19,1.65a.88.88,0,0,0,1.19-.38.82.82,0,0,0,.1-.4V17a.76.76,0,0,0-.76-.77.85.85,0,0,0-.35.08l-3.37,1.74"></path>
            <path class="svg__stroke svg__color" stroke="currentColor" stroke-linecap="round" stroke-linejoin="round" stroke-width="1" fill="none" d="M9.93,19.49,6.75,21.14a.89.89,0,0,1-1.2-.38.93.93,0,0,1-.09-.4V17a.76.76,0,0,1,.76-.77.85.85,0,0,1,.35.08l3.37,1.74"></path>
            <path class="svg__stroke svg__color" stroke="currentColor" stroke-linecap="round" stroke-linejoin="round" stroke-width="1" fill="none" d="M40.24,22.37a.64.64,0,0,0-.71-.56.64.64,0,1,0,.71.56Z"></path>
            <path class="svg__stroke svg__color" stroke="currentColor" stroke-linecap="round" stroke-linejoin="round" stroke-width="1" fill="none" d="M31.49,22.37a.64.64,0,0,1,.71-.56.63.63,0,0,1,.56.71.64.64,0,0,1-.71.57h0a.63.63,0,0,1-.56-.71Z"></path>
            <line class="svg__stroke svg__color" stroke="currentColor" stroke-linecap="round" stroke-linejoin="round" stroke-width="1" fill="none" x1="40.24" y1="22.37" x2="40.95" y2="21.9"></line>
            <line class="svg__stroke svg__color" stroke="currentColor" stroke-linecap="round" stroke-linejoin="round" stroke-width="1" fill="none" x1="31.47" y1="22.37" x2="30.76" y2="21.9"></line>
            <path class="svg__stroke svg__color" stroke="currentColor" stroke-linecap="round" stroke-linejoin="round" stroke-width="1" fill="none" d="M26,15.23a4,4,0,0,1,3.63-2.58,4.37,4.37,0,0,1,2.65.86"></path>
            <path class="svg__stroke svg__color" stroke="currentColor" stroke-linecap="round" stroke-linejoin="round" stroke-width="1" fill="none" d="M35.72,15.34h.14c2.67,0,3.11-2.69,6.23-2.69S46.5,16.12,46.5,19s-2.71,6.49-2.41,8.26c1,6.13-.55,18.84-5,18.84C35.22,46.11,43,31,35.84,31s.61,15.07-3.31,15.07c-4.38,0-6-12.71-5-18.84.29-1.76-2.41-5.37-2.41-8.26v-.17"></path>
            <path class="svg__stroke svg__color" stroke="currentColor" stroke-linecap="round" stroke-linejoin="round" stroke-width="1" fill="none" d="M36,26.75a3.31,3.31,0,0,0,2.2-1"></path>
            <path class="svg__stroke svg__color" stroke="currentColor" stroke-linecap="round" stroke-linejoin="round" stroke-width="1" fill="none" d="M33.79,25.79a3.32,3.32,0,0,0,2.2,1"></path>
            <path class="svg__stroke svg__color" stroke="currentColor" stroke-linecap="round" stroke-linejoin="round" stroke-width="1" fill="none" d="M29.62,14.58a1.39,1.39,0,1,1-.86,1.76h0A1.39,1.39,0,0,1,29.62,14.58Z"></path>
            <path class="svg__stroke svg__color" stroke="currentColor" stroke-linecap="round" stroke-linejoin="round" stroke-width="1" fill="none" d="M31.49,16.16l2.69.41a1.36,1.36,0,0,0,1.54-1.14,1.39,1.39,0,0,0-.06-.64l-.58-1.69a1.2,1.2,0,0,0-1.51-.74,1.25,1.25,0,0,0-.47.31L31,14.84"></path>
            <path class="svg__stroke svg__color" stroke="currentColor" stroke-linecap="round" stroke-linejoin="round" stroke-width="1" fill="none" d="M29.13,17l-1.88,2a1.36,1.36,0,0,1-1.27.38,1.34,1.34,0,0,1-1-.88l-.59-1.7a1.19,1.19,0,0,1,.75-1.5,1.18,1.18,0,0,1,.56,0l3,.41"></path>
        </g>
    </g>
</svg>
