<svg width="48" height="48" xmlns="http://www.w3.org/2000/svg" viewBox="0 0 47 30.41">
    <g>
        <g>
            <path class="svg__stroke svg__color" stroke="currentColor" stroke-linecap="round" stroke-linejoin="round" stroke-width="1" fill="none" d="M3.66,11C2.09,9.5,1.06,5.67.52,3.07A1.07,1.07,0,0,1,1.35,1.8,1.11,1.11,0,0,1,2.18,2C3.94,3.13,6.31,4.57,7.35,4.57,9.07,4.57,11.66.5,15,.5s5.43,3.21,8.09,3.21h.84C26.58,3.71,28.68.5,32,.5s5.92,4.07,7.65,4.07c1,0,3.4-1.44,5.16-2.61a1.08,1.08,0,0,1,1.66,1.11c-.54,2.6-1.57,6.43-3.14,7.93"/>
            <path class="svg__stroke svg__color" stroke="currentColor" stroke-linecap="round" stroke-linejoin="round" stroke-width="1" fill="none" d="M23.47,16.48a.84.84,0,0,1-.67.8,15.85,15.85,0,0,1-4.18-.19,1.25,1.25,0,0,1-1.11-1.26c0-1.92.34-6.34,3.15-6.34,2.48,0,2.83,4.06,2.83,6.14,0-2.08.36-6.14,2.83-6.14,2.82,0,3.14,4.42,3.16,6.34a1.26,1.26,0,0,1-1.11,1.26,15.51,15.51,0,0,1-4.19.19.85.85,0,0,1-.67-.8v-.82"/>
            <path class="svg__stroke svg__color" stroke="currentColor" stroke-linecap="round" stroke-linejoin="round" stroke-width="1" fill="none" d="M23.49,14v.83"/>
            <path class="svg__stroke svg__color" stroke="currentColor" stroke-linecap="round" stroke-linejoin="round" stroke-width="1" fill="none" d="M30.15,16.54a4.93,4.93,0,0,1-.55-2.32c0-1.39.82-4.73,2.4-4.73s2.13,2.89,2.13,6.4C34.13,16.9,30.15,16.54,30.15,16.54Z"/>
            <path class="svg__stroke svg__color" stroke="currentColor" stroke-linecap="round" stroke-linejoin="round" stroke-width="1" fill="none" d="M16.84,16.54a4.93,4.93,0,0,0,.55-2.32c0-1.39-.83-4.73-2.4-4.73s-2.13,2.89-2.13,6.4C12.86,16.9,16.84,16.54,16.84,16.54Z"/>
            <path class="svg__stroke svg__color" stroke="currentColor" stroke-linecap="round" stroke-linejoin="round" stroke-width="1" fill="none" d="M33.73,11.64s1.51-3,3.17-3,1.09,6.1,0,7.18-2.77-.71-2.77-.71"/>
            <path class="svg__stroke svg__color" stroke="currentColor" stroke-linecap="round" stroke-linejoin="round" stroke-width="1" fill="none" d="M13.26,11.64s-1.51-3-3.18-3-1.08,6.1,0,7.18,2.78-.71,2.78-.71"/>
            <path class="svg__stroke svg__color" stroke="currentColor" stroke-linecap="round" stroke-linejoin="round" stroke-width="1" fill="none" d="M37.94,11.64s.91-2.15,2.2-2.15.83,4,0,5.1-2.63,0-2.63,0"/>
            <path class="svg__stroke svg__color" stroke="currentColor" stroke-linecap="round" stroke-linejoin="round" stroke-width="1" fill="none" d="M9,11.64s-.9-2.15-2.19-2.15-.83,4,0,5.1,2.63,0,2.63,0"/>
            <path class="svg__stroke svg__color" stroke="currentColor" stroke-linecap="round" stroke-linejoin="round" stroke-width="1" fill="none" d="M40.94,11s.78-1.48,2-1.48c.83,0,.33,2.28-.06,3.67a1.18,1.18,0,0,1-1.37.85l-1-.19"/>
            <path class="svg__stroke svg__color" stroke="currentColor" stroke-linecap="round" stroke-linejoin="round" stroke-width="1" fill="none" d="M6,11s-.77-1.48-2-1.48c-.83,0-.33,2.28,0,3.67A1.2,1.2,0,0,0,5.5,14l1-.19"/>
            <path class="svg__stroke svg__color" stroke="currentColor" stroke-linecap="round" stroke-linejoin="round" stroke-width="1" fill="none" d="M27.22,17.24a.87.87,0,0,1,.16.52c0,1.95-.28,4.43-2,4.43-1.37,0-1.7-3.06-1.79-4.52h0c-.08,1.46-.41,4.52-1.79,4.52-1.7,0-1.95-2.48-2-4.43a.89.89,0,0,1,.15-.5"/>
            <path class="svg__stroke svg__color" stroke="currentColor" stroke-linecap="round" stroke-linejoin="round" stroke-width="1" fill="none" d="M23.27,17l.17.14a.27.27,0,1,0,.35.42.27.27,0,0,0,0-.38l0,0,0,0"/>
            <path class="svg__stroke svg__color" stroke="currentColor" stroke-linecap="round" stroke-linejoin="round" stroke-width="1" fill="none" d="M29,16.84l1.36-.07a.73.73,0,0,1,.57.24.9.9,0,0,1,.22.63c-.09,1.93-.52,4.36-2,4.36s-1.68-2.95-1.78-4.35a.79.79,0,0,1,.11-.45"/>
            <path class="svg__stroke svg__color" stroke="currentColor" stroke-linecap="round" stroke-linejoin="round" stroke-width="1" fill="none" d="M19.74,17.23a.75.75,0,0,1,.09.41c-.1,1.41-.46,4.36-1.78,4.36s-1.87-2.43-2-4.37A.88.88,0,0,1,16.3,17a.74.74,0,0,1,.57-.24l1.11.05"/>
            <path class="svg__stroke svg__color" stroke="currentColor" stroke-linecap="round" stroke-linejoin="round" stroke-width="1" fill="none" d="M33.83,16.27a1,1,0,0,1,.09.13h0c.74,1.39,0,5.61-.81,5.61a2.3,2.3,0,0,1-2.3-1.87"/>
            <path class="svg__stroke svg__color" stroke="currentColor" stroke-linecap="round" stroke-linejoin="round" stroke-width="1" fill="none" d="M30.92,17a1.6,1.6,0,0,1,.41-.41"/>
            <path class="svg__stroke svg__color" stroke="currentColor" stroke-linecap="round" stroke-linejoin="round" stroke-width="1" fill="none" d="M13.33,16.37s0,0,0,.05c-.74,1.38,0,5.6.83,5.6a2.31,2.31,0,0,0,2.31-1.86"/>
            <path class="svg__stroke svg__color" stroke="currentColor" stroke-linecap="round" stroke-linejoin="round" stroke-width="1" fill="none" d="M15.87,16.59a2.33,2.33,0,0,1,.42.41"/>
            <path class="svg__stroke svg__color" stroke="currentColor" stroke-linecap="round" stroke-linejoin="round" stroke-width="1" fill="none" d="M37.22,15.37c.36.5.09,2.25-.23,3.72h0c-.07.34-.15.67-.22,1a1.25,1.25,0,0,1-1.43,1l-1.43-.36"/>
            <path class="svg__stroke svg__color" stroke="currentColor" stroke-linecap="round" stroke-linejoin="round" stroke-width="1" fill="none" d="M33.91,16.42h0a5.69,5.69,0,0,1,1-.64"/>
            <path class="svg__stroke svg__color" stroke="currentColor" stroke-linecap="round" stroke-linejoin="round" stroke-width="1" fill="none" d="M9.9,15.61a9.87,9.87,0,0,0,.33,3.49c.07.34.15.67.22,1a1.23,1.23,0,0,0,1.43,1l1.43-.36"/>
            <path class="svg__stroke svg__color" stroke="currentColor" stroke-linecap="round" stroke-linejoin="round" stroke-width="1" fill="none" d="M13.3,16.42h0a7.2,7.2,0,0,0-1.11-.71"/>
            <path class="svg__stroke svg__color" stroke="currentColor" stroke-linecap="round" stroke-linejoin="round" stroke-width="1" fill="none" d="M40.24,14.44a5.39,5.39,0,0,1,.1,3c-.25,1.17-.78,2.19-1.4,2.32A2.15,2.15,0,0,1,37,19.1h0"/>
            <path class="svg__stroke svg__color" stroke="currentColor" stroke-linecap="round" stroke-linejoin="round" stroke-width="1" fill="none" d="M10.23,19.1a2.1,2.1,0,0,1-2,.64c-.62-.13-1.15-1.14-1.4-2.32h0a5.81,5.81,0,0,1,0-2.75"/>
            <path class="svg__stroke svg__color" stroke="currentColor" stroke-linecap="round" stroke-linejoin="round" stroke-width="1" fill="none" d="M42.79,13.35A8.43,8.43,0,0,1,43,15.47a2.36,2.36,0,0,1-.87,2c-1.52,1-1.79,0-1.79,0"/>
            <path class="svg__stroke svg__color" stroke="currentColor" stroke-linecap="round" stroke-linejoin="round" stroke-width="1" fill="none" d="M6.88,17.42h0c0,.06-.32.94-1.79,0-1.15-.76-.91-2.82-.72-3.8"/>
            <path class="svg__stroke svg__color" stroke="currentColor" stroke-linecap="round" stroke-linejoin="round" stroke-width="1" fill="none" d="M3.85,15.47s-1.68.42-1.68,5.64c0,3.84,7.82,8.8,11.88,8.8s4.62-1.39,9.37-1.39,5.33,1.39,9.38,1.39,11.88-5,11.88-8.79c0-5.2-1.68-5.63-1.68-5.63"/>
        </g>
    </g>
</svg>
