<svg width="48" height="48" xmlns="http://www.w3.org/2000/svg" viewBox="0 0 47 37.16">
    <g>
        <g>
            <path class="svg__stroke svg__color" stroke="currentColor" stroke-linecap="round" stroke-linejoin="round" stroke-width="1" fill="none" d="M17.84,24.94a1.06,1.06,0,0,0,0-.31,5.86,5.86,0,0,0-.3-1.44"/>
            <path class="svg__stroke svg__color" stroke="currentColor" stroke-linecap="round" stroke-linejoin="round" stroke-width="1" fill="none" stroke-dasharray="2.53 4.05" d="M29,24.63a1.55,1.55,0,0,0,0,.31c1,4-.66,11.72-3.47,11.72C23,36.66,28,27,23.42,27h0c-4.57,0,.42,9.63-2.1,9.63-2.8,0-4.45-7.7-3.47-11.72"/>
            <path class="svg__stroke svg__color" stroke="currentColor" stroke-linecap="round" stroke-linejoin="round" stroke-width="1" fill="none" d="M30.1,20.39C29.79,21.91,29,23.63,29,24.63"/>
            <path class="svg__stroke svg__color" stroke="currentColor" stroke-linecap="round" stroke-linejoin="round" stroke-width="1" fill="none" d="M42.61,24.94a.8.8,0,0,1,0-.31h0c0-1.24,1.24-3.58,1.24-5.28,0-1.85-.83-4.07-2.82-4.07s-2.28.94-4,.94h0c-1.71,0-2-.94-4-.94-1.73,0-2.58,1.68-2.77,3.33"/>
            <path class="svg__stroke svg__color" stroke="currentColor" stroke-linecap="round" stroke-linejoin="round" stroke-width="1" fill="none" stroke-dasharray="2.53 4.05" d="M31.45,24.94c-1,4,.67,11.72,3.47,11.72,2.5,0-2.48-9.63,2.11-9.63h0c4.57,0-.42,9.63,2.11,9.63,2.8,0,4.45-7.7,3.47-11.72"/>
            <path class="svg__stroke svg__color" stroke="currentColor" stroke-linecap="round" stroke-linejoin="round" stroke-width="1" fill="none" d="M30.34,20.34c.3,1.53,1.14,3.3,1.14,4.29a1.55,1.55,0,0,1,0,.31"/>
            <path class="svg__stroke svg__color" stroke="currentColor" stroke-linecap="round" stroke-linejoin="round" stroke-width="1" fill="none" d="M4.23,24.94C4.51,23.83,3,21.22,3,19.35s.82-4.07,2.81-4.07,2.28.94,4,.94h0c1.71,0,2-.94,4-.94s2.81,2.22,2.81,4.07-1.49,4.48-1.24,5.59"/>
            <path class="svg__stroke svg__color" stroke="currentColor" stroke-linecap="round" stroke-linejoin="round" stroke-width="1" fill="none" d="M15.4,24.94c0,.16.07.34.1.51"/>
            <path class="svg__stroke svg__color" stroke="currentColor" stroke-linecap="round" stroke-linejoin="round" stroke-width="1" fill="none" stroke-dasharray="2.52 4.03" d="M15.67,27.11c.15,4.13-1.39,9.55-3.74,9.55S14.41,27,9.82,27h0c-4.57,0,.39,9.63-2.11,9.63S3.61,30.46,4,26.28"/>
            <path class="svg__stroke svg__color" stroke="currentColor" stroke-linecap="round" stroke-linejoin="round" stroke-width="1" fill="none" d="M4.13,25.45c0-.17.07-.35.1-.51"/>
            <path class="svg__stroke svg__color" stroke="currentColor" stroke-linecap="round" stroke-linejoin="round" stroke-width="1" fill="none" d="M30.18,18.63c-.18-1.65-1-3.35-2.77-3.35-1.93,0-2.26.87-3.82.94h-.17a4,4,0,0,1-1.79-.42,4.76,4.76,0,0,0-2.2-.5c-2,0-2.81,2.21-2.81,4.06A9.15,9.15,0,0,0,17,21.24a.37.37,0,0,0,.42.27c1.13-.18,5-.83,7-1.37s4.09-1.11,5.78-1.49l.09,0c3.6-.83,6.08-1.06,7.22-.18a1.72,1.72,0,0,1,.7,1.42.85.85,0,0,1-.85.85.84.84,0,0,1-.84-.85v-.06s-.42-.55-3.83.05c-.73.13-1.51.3-2.33.49l-.23,0c-1.68.41-3.49.89-5.25,1.38a33.7,33.7,0,0,1-7.27,1.42c-1,0-1.61-.33-1.61-.94h0"/>
            <line class="svg__stroke svg__color" stroke="currentColor" stroke-linecap="round" stroke-linejoin="round" stroke-width="1" fill="none" x1="23.59" y1="16.21" x2="23.59" y2="16.21"/>
            <path class="svg__stroke svg__color" stroke="currentColor" stroke-linecap="round" stroke-linejoin="round" stroke-width="1" fill="none" d="M27.51,15.29c3.28-1.44,9-5,18.65-13.26A.85.85,0,0,0,45.23.61C25.78,16.49,21.87,15.85,21.64,15.8h0"/>
            <path class="svg__stroke svg__color" stroke="currentColor" stroke-linecap="round" stroke-linejoin="round" stroke-width="1" fill="none" d="M.5,24.9a4.53,4.53,0,0,0,1.73-.71A1.39,1.39,0,0,1,3,23.92a1.74,1.74,0,0,1,1.24.71,26.68,26.68,0,0,0,5.55.76h0a26.68,26.68,0,0,0,5.56-.76,1.45,1.45,0,0,1,2-.5,1.33,1.33,0,0,1,.5.5,20.51,20.51,0,0,0,11.1,0,1.47,1.47,0,0,1,2-.5,1.49,1.49,0,0,1,.5.5,20.51,20.51,0,0,0,11.1,0,1.74,1.74,0,0,1,1.24-.71,1.44,1.44,0,0,1,.87.33,3.21,3.21,0,0,0,1.24.58"/>
        </g>
    </g>
</svg>
