<svg width="48" height="48" xmlns="http://www.w3.org/2000/svg" viewBox="0 0 47 42.88">
    <g>
        <g>
            <path class="svg__stroke svg__color" stroke="currentColor" stroke-linecap="round" stroke-linejoin="round" stroke-width="1" fill="none" d="M39.36,23.92a2.54,2.54,0,0,1-2.06,1.63,29.31,29.31,0,0,1-8.19-.1,1.73,1.73,0,0,1-1.34-1.6c0-.43,0-1,0-1.64"/>
            <path class="svg__stroke svg__color" stroke="currentColor" stroke-linecap="round" stroke-linejoin="round" stroke-width="1" fill="none" d="M27.73,22.14C27.73,18,28.21,10,33.19,10c3.25,0,4.85,3,5.63,6.33"/>
            <path class="svg__stroke svg__color" stroke="currentColor" stroke-linecap="round" stroke-linejoin="round" stroke-width="1" fill="none" d="M21.6,12.76c0,.63,0,1.18,0,1.62A1.68,1.68,0,0,0,23,16a19.84,19.84,0,0,0,5.3,0"/>
            <path class="svg__stroke svg__color" stroke="currentColor" stroke-linecap="round" stroke-linejoin="round" stroke-width="1" fill="none" d="M21.55,14.38A1.69,1.69,0,0,1,20.22,16c-2,.44-5.87-.05-8.32-.36a2.52,2.52,0,0,1-2.2-2.53C9.74,9.28,10.38.5,16,.5c4.92,0,5.63,8.05,5.63,12.19,0-4.14.7-12.19,5.62-12.19,4.37,0,5.71,5.38,6.1,9.52"/>
            <path class="svg__stroke svg__color" stroke="currentColor" stroke-linecap="round" stroke-linejoin="round" stroke-width="1" fill="none" d="M33.71,10.05V9.89C33.71,7.14,35.37.5,38.47.5S42.7,6.22,42.7,13.2c0,1.08-2.28,1.37-4.4,1.41"/>
            <path class="svg__stroke svg__color" stroke="currentColor" stroke-linecap="round" stroke-linejoin="round" stroke-width="1" fill="none" d="M8.36,14.48A9.57,9.57,0,0,0,9.48,9.91c0-2.76-1.65-9.4-4.76-9.4S.5,6.23.5,13.21C.47,15.21,8.36,14.48,8.36,14.48Z"/>
            <path class="svg__stroke svg__color" stroke="currentColor" stroke-linecap="round" stroke-linejoin="round" stroke-width="1" fill="none" d="M32.36,22.24l-5,1.67A9,9,0,0,0,23.93,26L7,42.38"/>
            <polyline class="svg__stroke svg__color" stroke="currentColor" stroke-linecap="round" stroke-linejoin="round" stroke-width="1" fill="none" points="11.07 42.38 27.76 28.39 30.66 25.68"/>
            <line class="svg__stroke svg__color" stroke="currentColor" stroke-linecap="round" stroke-linejoin="round" stroke-width="1" fill="none" x1="33.7" y1="30.01" x2="33.7" y2="31.25"/>
            <line class="svg__stroke svg__color" stroke="currentColor" stroke-linecap="round" stroke-linejoin="round" stroke-width="1" fill="none" x1="33.7" y1="33.38" x2="33.7" y2="34.62"/>
            <line class="svg__stroke svg__color" stroke="currentColor" stroke-linecap="round" stroke-linejoin="round" stroke-width="1" fill="none" x1="36.01" y1="32.31" x2="34.76" y2="32.31"/>
            <line class="svg__stroke svg__color" stroke="currentColor" stroke-linecap="round" stroke-linejoin="round" stroke-width="1" fill="none" x1="32.64" y1="32.31" x2="31.39" y2="32.31"/>
            <line class="svg__stroke svg__color" stroke="currentColor" stroke-linecap="round" stroke-linejoin="round" stroke-width="1" fill="none" x1="44.53" y1="24.65" x2="44.53" y2="25.35"/>
            <line class="svg__stroke svg__color" stroke="currentColor" stroke-linecap="round" stroke-linejoin="round" stroke-width="1" fill="none" x1="44.53" y1="27.51" x2="44.53" y2="28.21"/>
            <line class="svg__stroke svg__color" stroke="currentColor" stroke-linecap="round" stroke-linejoin="round" stroke-width="1" fill="none" x1="46.5" y1="26.43" x2="45.73" y2="26.43"/>
            <line class="svg__stroke svg__color" stroke="currentColor" stroke-linecap="round" stroke-linejoin="round" stroke-width="1" fill="none" x1="43.32" y1="26.43" x2="42.55" y2="26.43"/>
            <line class="svg__stroke svg__color" stroke="currentColor" stroke-linecap="round" stroke-linejoin="round" stroke-width="1" fill="none" x1="39.1" y1="18.33" x2="39.1" y2="19.02"/>
            <line class="svg__stroke svg__color" stroke="currentColor" stroke-linecap="round" stroke-linejoin="round" stroke-width="1" fill="none" x1="39.1" y1="21.19" x2="39.1" y2="21.89"/>
            <line class="svg__stroke svg__color" stroke="currentColor" stroke-linecap="round" stroke-linejoin="round" stroke-width="1" fill="none" x1="41.07" y1="20.11" x2="40.3" y2="20.11"/>
            <line class="svg__stroke svg__color" stroke="currentColor" stroke-linecap="round" stroke-linejoin="round" stroke-width="1" fill="none" x1="37.9" y1="20.11" x2="37.12" y2="20.11"/>
            <path class="svg__stroke svg__color" stroke="currentColor" stroke-linecap="round" stroke-linejoin="round" stroke-width="1" fill="none" d="M31.9,13.13a7.51,7.51,0,0,0-.51,1.32"/>
            <line class="svg__stroke svg__color" stroke="currentColor" stroke-linecap="round" stroke-linejoin="round" stroke-width="1" fill="none" x1="31.16" y1="16.53" x2="30.76" y2="20.15"/>
        </g>
    </g>
</svg>
