<svg width="45px" height="45px" viewBox="0 0 45 45" version="1.1" xmlns="http://www.w3.org/2000/svg" xmlns:xlink="http://www.w3.org/1999/xlink">
    <g class="svg__stroke" stroke="none" stroke-width="1" fill="none" fill-rule="evenodd">
        <g class="svg__color" transform="translate(-482.000000, 0.000000)" stroke="currentColor">
            <g>
                <g transform="translate(383.000000, 0.000000)">
                    <g transform="translate(99.000000, 0.000000)">
                        <path d="M20.5,40.5 C9.454,40.5 0.5,31.546 0.5,20.5 C0.5,9.454 9.454,0.5 20.5,0.5 C28.702,0.5 35.75,5.437 38.836,12.501" stroke-linecap="square"></path>
                        <polyline stroke-linecap="square" points="20.5 10.5 20.5 20.5 10.5 20.5"></polyline>
                        <ellipse stroke-linecap="square" cx="35.5" cy="22.5" rx="9" ry="4"></ellipse>
                        <path d="M26.5,22.5 L26.5,28.5 C26.5,30.709 30.529,32.5 35.5,32.5 C40.471,32.5 44.5,30.709 44.5,28.5 L44.5,22.5"></path>
                        <path d="M26.5,28.5 L26.5,34.5 C26.5,36.709 30.529,38.5 35.5,38.5 C40.471,38.5 44.5,36.709 44.5,34.5 L44.5,28.5"></path>
                        <path d="M26.5,34.5 L26.5,40.5 C26.5,42.709 30.529,44.5 35.5,44.5 C40.471,44.5 44.5,42.709 44.5,40.5 L44.5,34.5"></path>
                    </g>
                </g>
            </g>
        </g>
    </g>
</svg>
