<svg width="45px" height="39px" viewBox="0 0 45 39" version="1.1" xmlns="http://www.w3.org/2000/svg" xmlns:xlink="http://www.w3.org/1999/xlink">
    <g class="svg__stroke" stroke="none" stroke-width="1" fill="none" fill-rule="evenodd" stroke-linecap="square">
        <g class="svg__color" transform="translate(-1094.000000, -2.000000)" stroke="currentColor">
            <g>
                <g transform="translate(1004.000000, 2.000000)">
                    <g transform="translate(90.000000, 0.000000)">
                        <rect x="28.5" y="28.5" width="16" height="10"></rect>
                        <path d="M32.5,28.5 L32.5,22.5 C32.5,20.3 34.3,18.5 36.5,18.5 C38.7,18.5 40.5,20.3 40.5,22.5 L40.5,28.5"></path>
                        <path d="M22.5,25.5 L0.5,25.5 C0.5,28.814 3.186,31.5 6.5,31.5 L22.5,31.5"></path>
                        <path d="M4.5,20.5 L4.5,4.5 C4.5,2.291 6.291,0.5 8.5,0.5 L36.5,0.5 C38.709,0.5 40.5,2.291 40.5,4.5 L40.5,13.5"></path>
                        <path d="M21.5,6.5 L23.5,6.5"></path>
                    </g>
                </g>
            </g>
        </g>
    </g>
</svg>
